<svg xmlns="http://www.w3.org/2000/svg"  viewBox="0 0 64 64" width="120px" height="120px"><path d="M 10 4 L 10 60 L 36.257812 60 L 36.169922 59.199219 L 39.613281 56 L 14 56 L 14 8 L 37.695312 8 C 40.985312 8 42 9.3650781 42 10.580078 C 42 12.365078 40 15 40 15 C 49.761 19.62 50 19.433 50 23 L 50 36.400391 C 51.216 35.736391 52.568 35.296375 54 35.109375 L 54 22.154297 C 54 20.117297 53.280703 18.144938 51.970703 16.585938 L 43.109375 6.0429688 C 42.020375 4.7479688 40.416609 4 38.724609 4 L 10 4 z M 21 25 L 21 29 L 43 29 L 43 25 L 21 25 z M 21 33 L 21 37 L 43 37 L 43 33 L 21 33 z M 55 38.048828 C 50.029 38.048828 46 42.077828 46 47.048828 C 46 52.019828 50.029 56.048828 55 56.048828 C 59.971 56.048828 64 52.019828 64 47.048828 C 64 42.077828 59.971 38.048828 55 38.048828 z M 21 41 L 21 45 L 43 45 L 43 41 L 21 41 z M 55 42.048828 C 57.761 42.048828 60 44.287828 60 47.048828 C 60 49.809828 57.761 52.048828 55 52.048828 C 52.239 52.048828 50 49.809828 50 47.048828 C 50 44.287828 52.239 42.048828 55 42.048828 z M 45.107422 53.484375 L 38.091797 60 C 38.091797 60 38.289781 61.736047 39.300781 62.748047 C 40.311781 63.760047 42.091797 64 42.091797 64 L 48.607422 56.984375 L 45.107422 53.484375 z"/></svg>