<svg width="53" height="53" viewBox="0 0 53 53" fill="none" xmlns="http://www.w3.org/2000/svg">
<circle cx="26.5" cy="26.5" r="25.5" stroke="black" stroke-width="2"/>
<path d="M31.3312 31.3312C30.0497 32.6122 28.312 33.3319 26.5 33.3319C24.688 33.3319 22.9503 32.6122 21.6688 31.3312M21.375 23.0833H21.3921M31.625 23.0833H31.6421M41.875 26.5C41.875 28.5191 41.4773 30.5184 40.7046 32.3838C39.932 34.2491 38.7995 35.9441 37.3718 37.3718C35.9441 38.7995 34.2491 39.932 32.3838 40.7046C30.5184 41.4773 28.5191 41.875 26.5 41.875C24.4809 41.875 22.4816 41.4773 20.6162 40.7046C18.7509 39.932 17.0559 38.7995 15.6282 37.3718C14.2005 35.9441 13.068 34.2491 12.2954 32.3838C11.5227 30.5184 11.125 28.5191 11.125 26.5C11.125 22.4223 12.7449 18.5116 15.6282 15.6282C18.5116 12.7449 22.4223 11.125 26.5 11.125C30.5777 11.125 34.4884 12.7449 37.3718 15.6282C40.2551 18.5116 41.875 22.4223 41.875 26.5Z" stroke="black" stroke-width="3" stroke-linecap="round" stroke-linejoin="round"/>
</svg>
