<svg width="16" height="16" viewBox="0 0 16 16" fill="none" xmlns="http://www.w3.org/2000/svg">
<path d="M16.0002 7.5C16.0002 7.89783 15.8422 8.27936 15.5609 8.56066C15.2796 8.84196 14.8981 9 14.5002 9C14.1024 9 13.7209 8.84196 13.4396 8.56066C13.1583 8.27936 13.0002 7.89783 13.0002 7.5V1.5C13.0002 1.10218 13.1583 0.720645 13.4396 0.43934C13.7209 0.158036 14.1024 3.73082e-07 14.5002 3.73082e-07C14.8981 3.73082e-07 15.2796 0.158036 15.5609 0.43934C15.8422 0.720645 16.0002 1.10218 16.0002 1.5V7.5ZM12.0002 7.667V2.237C12.0005 1.86544 11.8973 1.50116 11.7021 1.18499C11.5069 0.86882 11.2275 0.613273 10.8952 0.447L10.8452 0.422C10.2895 0.144217 9.67659 -0.000267964 9.05525 3.73082e-07H3.64025C3.17772 -0.000182829 2.72942 0.159952 2.37169 0.45314C2.01396 0.746328 1.7689 1.15444 1.67825 1.608L0.478245 7.608C0.420239 7.89821 0.427362 8.19768 0.499101 8.4848C0.57084 8.77193 0.705407 9.03955 0.893095 9.26838C1.08078 9.4972 1.31692 9.68152 1.58446 9.80803C1.85201 9.93455 2.14429 10.0001 2.44025 10H6.00025V14C6.00025 14.5304 6.21096 15.0391 6.58603 15.4142C6.96111 15.7893 7.46981 16 8.00025 16C8.26546 16 8.51982 15.8946 8.70735 15.7071C8.89489 15.5196 9.00025 15.2652 9.00025 15V14.333C9.00025 13.4675 9.28096 12.6254 9.80025 11.933L11.2002 10.067C11.7195 9.37462 12.0002 8.53248 12.0002 7.667Z" fill="black"/>
</svg>
