<svg width="28" height="17" viewBox="0 0 28 17" fill="none" xmlns="http://www.w3.org/2000/svg">
<path fill-rule="evenodd" clip-rule="evenodd" d="M0.818814 0.863247C1.34326 0.333145 2.05446 0.0353506 2.79603 0.0353506C3.53759 0.0353506 4.24879 0.333145 4.77324 0.863247L13.9825 10.1747L23.1918 0.863247C23.4498 0.593178 23.7584 0.377761 24.0996 0.229567C24.4408 0.0813735 24.8077 0.00336934 25.1791 0.000106763C25.5504 -0.00315582 25.9187 0.0683878 26.2624 0.210564C26.6061 0.352741 26.9183 0.562702 27.1809 0.828197C27.4435 1.09369 27.6511 1.4094 27.7917 1.75691C27.9324 2.10442 28.0031 2.47676 27.9999 2.85221C27.9967 3.22767 27.9195 3.59871 27.773 3.94369C27.6264 4.28868 27.4133 4.60069 27.1462 4.86153L15.9597 16.1721C15.4353 16.7022 14.7241 17 13.9825 17C13.241 17 12.5297 16.7022 12.0053 16.1721L0.818814 4.86153C0.294528 4.33127 0 3.61218 0 2.86239C0 2.1126 0.294528 1.39351 0.818814 0.863247Z" fill="black"/>
</svg>
