<svg width="34" height="34" viewBox="0 0 34 34" fill="none" xmlns="http://www.w3.org/2000/svg">
<path d="M15.5833 22.6667L9.91667 17M9.91667 17L15.5833 11.3333M9.91667 17H29.75M22.6667 22.6667V24.0833C22.6667 25.2105 22.2189 26.2915 21.4219 27.0885C20.6248 27.8856 19.5438 28.3333 18.4167 28.3333H8.5C7.37283 28.3333 6.29183 27.8856 5.4948 27.0885C4.69777 26.2915 4.25 25.2105 4.25 24.0833V9.91666C4.25 8.78949 4.69777 7.70848 5.4948 6.91145C6.29183 6.11442 7.37283 5.66666 8.5 5.66666H18.4167C19.5438 5.66666 20.6248 6.11442 21.4219 6.91145C22.2189 7.70848 22.6667 8.78949 22.6667 9.91666V11.3333" stroke="#FC0505" stroke-width="2" stroke-linecap="round" stroke-linejoin="round"/>
</svg>
