<svg width="15" height="15" viewBox="0 0 15 15" fill="none" xmlns="http://www.w3.org/2000/svg">
<path d="M9.00008 0C8.73486 0 8.48051 0.109409 8.29297 0.304158C8.10544 0.498908 8.00008 0.763044 8.00008 1.03846C8.00008 1.31388 8.10544 1.57802 8.29297 1.77276C8.48051 1.96751 8.73486 2.07692 9.00008 2.07692H11.5861L5.29308 8.61196C5.19757 8.70776 5.12139 8.82235 5.06898 8.94904C5.01657 9.07574 4.98898 9.21201 4.98783 9.34989C4.98668 9.48778 5.01198 9.62452 5.06226 9.75214C5.11254 9.87977 5.18679 9.99571 5.28069 10.0932C5.37458 10.1907 5.48623 10.2678 5.60913 10.32C5.73202 10.3723 5.8637 10.3985 5.99648 10.3973C6.12926 10.3961 6.26048 10.3675 6.38249 10.3131C6.50449 10.2586 6.61483 10.1795 6.70708 10.0803L13.0001 3.54531V6.23077C13.0001 6.50619 13.1054 6.77032 13.293 6.96507C13.4805 7.15982 13.7349 7.26923 14.0001 7.26923C14.2653 7.26923 14.5197 7.15982 14.7072 6.96507C14.8947 6.77032 15.0001 6.50619 15.0001 6.23077V1.03846C15.0001 0.763044 14.8947 0.498908 14.7072 0.304158C14.5197 0.109409 14.2653 0 14.0001 0H9.00008Z" fill="black"/>
<path d="M2 2.07693C1.46957 2.07693 0.960859 2.29575 0.585786 2.68525C0.210714 3.07475 0 3.60302 0 4.15386V12.4616C0 13.0124 0.210714 13.5407 0.585786 13.9302C0.960859 14.3197 1.46957 14.5385 2 14.5385H10C10.5304 14.5385 11.0391 14.3197 11.4142 13.9302C11.7893 13.5407 12 13.0124 12 12.4616V9.34617C12 9.07075 11.8946 8.80661 11.7071 8.61186C11.5196 8.41711 11.2652 8.3077 11 8.3077C10.7348 8.3077 10.4804 8.41711 10.2929 8.61186C10.1054 8.80661 10 9.07075 10 9.34617V12.4616H2V4.15386H5C5.26522 4.15386 5.51957 4.04445 5.70711 3.8497C5.89464 3.65495 6 3.39081 6 3.1154C6 2.83998 5.89464 2.57584 5.70711 2.38109C5.51957 2.18634 5.26522 2.07693 5 2.07693H2Z" fill="black"/>
</svg>
