<svg width="33" height="33" viewBox="0 0 33 33" fill="none" xmlns="http://www.w3.org/2000/svg">
<path d="M24.2044 25.1177C22.223 27.0991 19.5356 28.2122 16.7335 28.2122C13.9313 28.2122 11.2439 27.0991 9.26253 25.1177C7.28112 23.1363 6.16797 20.4489 6.16797 17.6468C6.16797 14.8446 7.28112 12.1572 9.26253 10.1758C9.26253 10.1758 10.1302 12.3641 12.7715 13.6848C12.7715 11.0435 13.4318 7.08154 16.715 4.44023C19.3748 7.08154 22.1349 8.10768 24.2031 10.1758C25.1858 11.1557 25.9652 12.3202 26.4965 13.6023C27.0277 14.8845 27.3004 16.2589 27.2987 17.6468C27.3005 19.0345 27.0281 20.4089 26.4971 21.691C25.9661 22.9731 25.1869 24.1377 24.2044 25.1177Z" stroke="black" stroke-width="2" stroke-linecap="round" stroke-linejoin="round"/>
<path d="M13.9326 21.7685C14.3927 22.2287 14.9591 22.5685 15.5817 22.7579C16.2043 22.9472 16.8639 22.9803 17.5024 22.8542C18.1408 22.7281 18.7383 22.4466 19.2422 22.0347C19.746 21.6228 20.1406 21.0932 20.3911 20.4926C20.6416 19.8919 20.7403 19.2389 20.6785 18.591C20.6167 17.9432 20.3963 17.3206 20.0367 16.7782C19.6771 16.2358 19.1895 15.7903 18.6168 15.4811C18.0442 15.1719 17.4043 15.0086 16.7535 15.0054L15.413 18.9674H12.7717C12.7717 19.9817 13.1587 20.9959 13.9326 21.7685Z" stroke="black" stroke-width="2" stroke-linecap="round" stroke-linejoin="round"/>
</svg>
