<svg width="22" height="23" viewBox="0 0 22 23" fill="none" xmlns="http://www.w3.org/2000/svg">
<path d="M12.2325 1.35271C11.985 1.10126 11.6494 0.959999 11.2995 0.959999C10.9495 0.959999 10.6139 1.10126 10.3664 1.35271L1.12828 10.7417C0.887877 10.9947 0.754855 11.3335 0.757862 11.6852C0.760869 12.0369 0.899664 12.3733 1.14435 12.622C1.38904 12.8706 1.72005 13.0117 2.06608 13.0148C2.41211 13.0178 2.74548 12.8826 2.99438 12.6383L3.38107 12.2453V21.079C3.38107 21.4348 3.52011 21.7759 3.76761 22.0275C4.01511 22.279 4.35078 22.4203 4.7008 22.4203H7.34027C7.69029 22.4203 8.02597 22.279 8.27346 22.0275C8.52096 21.7759 8.66001 21.4348 8.66001 21.079V18.3964C8.66001 18.0407 8.79905 17.6996 9.04655 17.448C9.29405 17.1965 9.62972 17.0552 9.97974 17.0552H12.6192C12.9692 17.0552 13.3049 17.1965 13.5524 17.448C13.7999 17.6996 13.9389 18.0407 13.9389 18.3964V21.079C13.9389 21.4348 14.078 21.7759 14.3255 22.0275C14.573 22.279 14.9087 22.4203 15.2587 22.4203H17.8981C18.2482 22.4203 18.5838 22.279 18.8313 22.0275C19.0788 21.7759 19.2179 21.4348 19.2179 21.079V12.2453L19.6046 12.6383C19.8535 12.8826 20.1868 13.0178 20.5329 13.0148C20.8789 13.0117 21.2099 12.8706 21.4546 12.622C21.6993 12.3733 21.8381 12.0369 21.8411 11.6852C21.8441 11.3335 21.7111 10.9947 21.4707 10.7417L12.2325 1.35271Z" fill="black"/>
</svg>
