<svg width="35" height="35" viewBox="0 0 35 35" fill="none" xmlns="http://www.w3.org/2000/svg">
<path d="M21.875 17.5C21.875 18.3653 21.6184 19.2112 21.1377 19.9306C20.6569 20.6501 19.9737 21.2108 19.1742 21.542C18.3748 21.8731 17.4951 21.9597 16.6465 21.7909C15.7978 21.6221 15.0183 21.2054 14.4064 20.5936C13.7946 19.9817 13.3779 19.2022 13.2091 18.3535C13.0403 17.5049 13.1269 16.6252 13.458 15.8258C13.7892 15.0263 14.3499 14.3431 15.0694 13.8623C15.7888 13.3816 16.6347 13.125 17.5 13.125C18.6599 13.1263 19.7719 13.5877 20.5921 14.4079C21.4123 15.2281 21.8737 16.3401 21.875 17.5ZM31.1719 11.4844V23.5156C31.1696 25.5455 30.3622 27.4915 28.9269 28.9269C27.4915 30.3622 25.5455 31.1696 23.5156 31.1719H11.4844C9.45452 31.1696 7.50846 30.3622 6.07313 28.9269C4.6378 27.4915 3.83042 25.5455 3.82812 23.5156V11.4844C3.83042 9.45452 4.6378 7.50846 6.07313 6.07313C7.50846 4.6378 9.45452 3.83042 11.4844 3.82812H23.5156C25.5455 3.83042 27.4915 4.6378 28.9269 6.07313C30.3622 7.50846 31.1696 9.45452 31.1719 11.4844ZM24.0625 17.5C24.0625 16.2021 23.6776 14.9333 22.9565 13.8541C22.2354 12.7749 21.2105 11.9337 20.0114 11.437C18.8122 10.9403 17.4927 10.8104 16.2197 11.0636C14.9467 11.3168 13.7774 11.9418 12.8596 12.8596C11.9418 13.7774 11.3168 14.9467 11.0636 16.2197C10.8104 17.4927 10.9403 18.8122 11.437 20.0114C11.9337 21.2105 12.7749 22.2354 13.8541 22.9565C14.9333 23.6776 16.2021 24.0625 17.5 24.0625C19.2399 24.0605 20.9079 23.3685 22.1382 22.1382C23.3685 20.9079 24.0605 19.2399 24.0625 17.5ZM26.25 10.3906C26.25 10.0661 26.1538 9.74894 25.9735 9.47914C25.7932 9.20934 25.537 8.99906 25.2372 8.87489C24.9374 8.75071 24.6076 8.71822 24.2893 8.78152C23.9711 8.84483 23.6787 9.00108 23.4493 9.23053C23.2198 9.45997 23.0636 9.7523 23.0003 10.0706C22.937 10.3888 22.9695 10.7187 23.0936 11.0185C23.2178 11.3183 23.4281 11.5745 23.6979 11.7548C23.9677 11.935 24.2849 12.0312 24.6094 12.0312C25.0445 12.0312 25.4618 11.8584 25.7695 11.5507C26.0771 11.243 26.25 10.8257 26.25 10.3906Z" fill="#FFF5EB"/>
</svg>
