<svg width="138" height="48" viewBox="0 0 138 48" fill="none" xmlns="http://www.w3.org/2000/svg">
<path d="M6.52194 11.0946C6.28754 11.6415 6.05315 18.2826 5.97502 25.7832L5.78798 36.6941C5.76069 38.2856 4.58173 39.6216 3.00605 39.8467C0.662121 40.1593 0.271467 40.5499 0.037074 42.6595C-0.27545 46.0972 1.3653 47.191 5.81876 46.4879C8.08456 46.1753 10.2722 45.1596 11.8348 43.7533C13.4237 42.3631 14.335 40.3546 14.335 38.2434V26.0176V14.3053C14.335 12.1931 12.6928 10.445 10.5847 10.3133C8.08456 10.157 6.75633 10.3914 6.52194 11.0946Z" fill="#FF9D42"/>
<path d="M24.3358 11.7196C21.5231 13.3604 19.8824 16.0168 20.5074 17.6576C21.1325 19.3765 26.6798 19.0639 28.3986 17.1888C30.2738 15.1574 33.9459 15.1574 35.0398 17.1888C36.2898 19.5327 35.5867 20.0015 30.7426 20.6266C25.7422 21.1735 20.6637 23.5174 19.4136 25.7051C15.507 33.0494 25.3515 40.5499 33.4771 36.3309C34.8054 35.6277 35.8211 35.4714 35.8211 35.9402C35.8211 36.3309 37.5399 36.7215 39.7276 36.7215C41.8851 36.7215 43.6342 34.9725 43.6342 32.815V26.3301C43.6342 15.0011 43.1654 13.5167 38.9463 11.329C35.5867 9.61011 27.4611 9.76637 24.3358 11.7196ZM35.8211 26.252C35.8211 30.8617 28.3986 33.9088 26.836 29.846C26.0392 27.7453 28.2645 26.3163 33.8854 25.3097C34.8062 25.1448 35.8211 25.3166 35.8211 26.252Z" fill="#FF9D42"/>
<path d="M50.1434 10.3682C49.7858 10.5469 49.557 10.8809 49.5017 11.2768C49.2663 12.9636 49.1033 18.1217 49.1033 23.9862V32.4243C49.1033 34.7976 51.0272 36.7215 53.4005 36.7215V36.7215V36.7215C55.7737 36.7215 57.6977 34.7976 57.6977 32.4243V28.1271C57.6977 20.5484 57.8539 19.3765 59.2603 17.9701C60.1197 17.1107 61.5261 16.4075 62.3855 16.4075C63.245 16.4075 64.6513 17.1107 65.5108 17.9701C66.9171 19.3765 67.0734 20.5484 67.0734 28.1271V32.4243C67.0734 34.7976 68.9973 36.7215 71.3706 36.7215V36.7215V36.7215C73.7438 36.7215 75.6678 34.7976 75.6678 32.4243V27.7365C75.6678 17.7357 74.8083 14.5324 71.3706 11.8759C68.7141 9.76637 61.7564 8.79836 58.7874 10.1398V10.1398C56.8725 10.7227 54.6458 9.41378 52.6655 9.70593C51.7117 9.84666 50.766 10.057 50.1434 10.3682Z" fill="#FF9D42"/>
<path d="M84.7307 11.7978C83.6369 12.6572 82.0743 14.5323 81.3711 15.8606C79.6522 19.2202 79.7304 27.7365 81.4493 31.0961C84.1057 36.1746 90.825 38.206 96.1379 35.4714C97.143 34.9527 98.3112 35.7964 98.1348 36.9136L98.0911 37.1903C97.4661 40.8625 96.841 41.4875 93.6377 41.5656C91.8407 41.6438 90.5906 41.0968 89.653 40.003C88.5592 38.5967 87.4653 38.2841 84.262 38.2841C80.1992 38.2841 80.1992 38.2841 80.7461 40.3937C81.918 45.1597 86.2934 47.738 93.0908 47.8161C98.4006 47.8161 104.168 45.4358 105.899 40.4162C106.022 40.0587 106.129 39.6868 106.217 39.2998C107.232 34.6901 107.076 12.1884 105.982 11.0946C104.654 9.76637 99.185 9.92263 98.638 11.329C98.2474 12.3447 98.013 12.3447 96.5285 11.329C93.9502 9.53197 87.2309 9.84449 84.7307 11.7978ZM96.6848 18.4389C99.0287 21.4079 98.8724 26.0957 96.3723 28.5178C94.1065 30.8617 92.8564 30.9398 90.4343 28.9866C88.8717 27.7365 88.5592 26.7208 88.5592 23.4393C88.5592 20.1578 88.8717 19.1421 90.4343 17.892C92.9345 15.8606 94.8096 16.0168 96.6848 18.4389Z" fill="#FF9D42"/>
<path d="M117.155 11.4852C113.014 13.5166 111.608 16.5637 111.608 23.7518C111.608 31.2523 113.17 34.3776 117.858 36.2527C124.656 38.9873 132.234 37.1903 135.594 32.1118C137 30.0023 137.391 28.3615 137.391 24.0643C137.391 17.1888 135.828 13.751 131.844 11.7196C128.093 9.76635 120.905 9.68822 117.155 11.4852ZM128.562 19.7671C129.734 23.2049 129.109 28.4396 127.468 30.1585C126.843 30.7836 125.281 31.2523 124.03 31.2523C122.077 31.2523 121.452 30.7836 120.436 28.3615C119.108 25.08 119.421 19.4546 120.983 17.5013C121.687 16.72 123.015 16.4075 124.812 16.5637C127.312 16.7981 127.703 17.1107 128.562 19.7671Z" fill="#FF9D42"/>
</svg>
