<svg width="138" height="53" viewBox="0 0 138 53" fill="none" xmlns="http://www.w3.org/2000/svg">
<path d="M6.43927 7.14726C6.28311 5.85189 7.41677 4.73451 7.651 4.08683L7.65244 4.08347C7.96439 3.35565 8.31719 2.53253 10.9677 2.53253H11.1474C13.2042 2.53253 14.8715 4.19989 14.8715 6.2567C14.8715 8.23259 13.2072 9.80034 11.2348 9.68234L10.8116 9.65702C6.90773 9.41414 6.6735 9.25222 6.43927 7.14726Z" fill="white"/>
<path d="M6.51741 14.0196C6.28318 14.5863 6.04895 21.4679 5.97087 29.2401L5.78231 40.646C5.75597 42.2393 4.58028 43.5794 3.00396 43.8129C0.661661 44.1367 0.271278 44.5416 0.0370483 46.7275C-0.275258 50.2897 1.36435 51.4232 5.81472 50.6945C8.07894 50.3707 10.2651 49.3182 11.8266 47.8609C13.4177 46.4173 14.3251 44.3688 14.3251 42.2205V29.483V17.2084C14.3251 15.0961 12.6853 13.3466 10.5774 13.21C8.07894 13.048 6.75164 13.2909 6.51741 14.0196Z" fill="white"/>
<path d="M24.3189 14.6671C21.5081 16.3673 19.8685 19.1199 20.4931 20.8201C21.1177 22.6012 26.6612 22.2774 28.3788 20.3343C30.2527 18.2294 33.9223 18.2294 35.0154 20.3343C36.2646 22.7631 35.5619 23.2489 30.7211 23.8966C25.7242 24.4633 20.6493 26.8921 19.4 29.159C15.4962 36.7692 25.3338 44.5414 33.4538 40.1696C34.7811 39.4409 35.7961 39.279 35.7961 39.7648C35.7961 40.1696 37.5138 40.5744 39.6999 40.5744C41.856 40.5744 43.6038 38.8266 43.6038 36.6705V29.8067C43.6038 18.0674 43.1353 16.5292 38.9192 14.2623C35.5619 12.4812 27.4419 12.6431 24.3189 14.6671ZM35.7961 29.7257C35.7961 34.5023 28.3788 37.6598 26.8173 33.4499C26.0228 31.278 28.2349 29.7989 33.8244 28.7562C34.7689 28.5801 35.7961 28.7649 35.7961 29.7257Z" fill="white"/>
<path d="M50.0997 13.2714C49.7473 13.4555 49.5244 13.7922 49.4703 14.1862C49.2334 15.9107 49.0691 21.2752 49.0691 27.378V36.2802C49.0691 38.6519 50.9917 40.5745 53.3633 40.5745C55.7349 40.5745 57.6575 38.6519 57.6575 36.2802V31.6688C57.6575 23.8157 57.8137 22.6013 59.2191 21.144C60.0779 20.2535 61.4833 19.5248 62.3421 19.5248C63.201 19.5248 64.6063 20.2535 65.4652 21.144C66.8706 22.6013 67.0267 23.8157 67.0267 31.6688V36.2802C67.0267 38.6519 68.9493 40.5745 71.3209 40.5745C73.6926 40.5745 75.6151 38.6519 75.6151 36.2802V31.264C75.6151 20.9011 74.7563 17.5818 71.3209 14.8291C68.6663 12.6432 61.7134 11.6401 58.7465 13.0301C56.8254 13.6365 54.5899 12.2774 52.5991 12.5852C51.6516 12.7316 50.7154 12.9498 50.0997 13.2714Z" fill="white"/>
<path d="M84.6719 14.7482C83.5788 15.6387 82.0173 17.5818 81.3146 18.9581C79.5969 22.4394 79.675 31.264 81.3927 34.7453C84.0473 40.0077 90.7619 42.1127 96.0711 39.2791C97.069 38.745 98.2486 39.5787 98.0782 40.6977L98.023 41.0602C97.3984 44.8653 96.7738 45.513 93.5726 45.594C91.7769 45.6749 90.5276 45.1082 89.5907 43.9748C88.4976 42.5175 87.4046 42.1937 84.2034 42.1937C80.1434 42.1937 80.1434 42.1937 80.69 44.3796C81.8611 49.3182 86.2334 51.9898 93.0261 52.0708C98.3372 52.0708 104.018 49.5767 105.771 44.563C105.917 44.1438 106.042 43.7053 106.143 43.2461C107.158 38.4695 107.002 15.153 105.909 14.0195C104.581 12.6432 99.1161 12.8051 98.5695 14.2624C98.1791 15.3149 97.9449 15.3149 96.4615 14.2624C93.8849 12.4003 87.1703 12.7242 84.6719 14.7482ZM96.6176 21.6298C98.9599 24.7063 98.8038 29.5639 96.3053 32.0736C94.0411 34.5024 92.7919 34.5834 90.3715 32.5594C88.8099 31.264 88.4976 30.2116 88.4976 26.8112C88.4976 23.4109 88.8099 22.3584 90.3715 21.0631C92.8699 18.9581 94.7438 19.12 96.6176 21.6298Z" fill="white"/>
<path d="M117.074 14.4243C112.936 16.5293 111.53 19.6868 111.53 27.1351C111.53 34.9073 113.092 38.1457 117.776 40.0887C124.569 42.9223 132.143 41.0602 135.5 35.7978C136.905 33.6119 137.296 31.9117 137.296 27.4589C137.296 20.3344 135.734 16.7722 131.752 14.6672C128.004 12.6432 120.821 12.5623 117.074 14.4243ZM128.473 23.0061C129.644 26.5684 129.019 31.9927 127.38 33.7738C126.755 34.4215 125.194 34.9073 123.944 34.9073C121.993 34.9073 121.368 34.4215 120.353 31.9117C119.026 28.5114 119.338 22.6823 120.899 20.6583C121.602 19.8487 122.929 19.5248 124.725 19.6868C127.224 19.9296 127.614 20.2535 128.473 23.0061Z" fill="white"/>
<circle cx="11.0779" cy="4" r="4" fill="white"/>
</svg>
