<svg width="139" height="50" viewBox="0 0 139 50" fill="none" xmlns="http://www.w3.org/2000/svg">
<path d="M7.43928 12.3305C7.20505 12.886 6.97082 19.6309 6.89275 27.2486L6.70509 38.3742C6.67824 39.9659 5.50119 41.3032 3.92584 41.5319C1.58354 41.8493 1.19315 42.2461 0.958923 44.3886C0.646617 47.8801 2.28623 48.991 6.73659 48.2768C9.00082 47.9594 11.187 46.9278 12.7485 45.4995C14.3377 44.0862 15.2469 42.0609 15.2469 39.9342V27.4867V15.5303C15.2469 13.4189 13.6064 11.6708 11.4993 11.537C9.00082 11.3783 7.67351 11.6163 7.43928 12.3305Z" fill="#FF9D42"/>
<path d="M25.2407 12.9653C22.43 14.6316 20.7904 17.3296 21.415 18.996C22.0396 20.7417 27.583 20.4243 29.3007 18.5199C31.1746 16.4567 34.8442 16.4567 35.9372 18.5199C37.1865 20.9004 36.4838 21.3765 31.643 22.0113C26.6461 22.5668 21.5711 24.9474 20.3219 27.1692C16.4181 34.6283 26.2557 42.246 34.3757 37.961C35.703 37.2469 36.718 37.0882 36.718 37.5643C36.718 37.961 38.4357 38.3578 40.6218 38.3578C42.7778 38.3578 44.5257 36.61 44.5257 34.454V27.804C44.5257 16.298 44.0572 14.7903 39.8411 12.5685C36.4838 10.8228 28.3638 10.9815 25.2407 12.9653ZM36.718 27.7247C36.718 32.4064 29.3007 35.5011 27.7392 31.3748C26.9437 29.2435 29.1623 27.7928 34.7671 26.7707C35.6981 26.6009 36.718 26.7784 36.718 27.7247Z" fill="#FF9D42"/>
<path d="M51.0268 11.5947C50.6716 11.7758 50.4455 12.1109 50.3907 12.5058C50.1548 14.2087 49.9912 19.456 49.9912 25.4236V34.0637C49.9912 36.4353 51.9138 38.3579 54.2854 38.3579C56.6571 38.3579 58.5796 36.4353 58.5796 34.0637V29.6292C58.5796 21.9321 58.7358 20.7418 60.1412 19.3135C61 18.4406 62.4054 17.7265 63.2642 17.7265C64.1231 17.7265 65.5285 18.4406 66.3873 19.3135C67.7927 20.7418 67.9488 21.9321 67.9488 29.6292V34.0637C67.9488 36.4353 69.8714 38.3579 72.243 38.3579C74.6147 38.3579 76.5373 36.4353 76.5373 34.0637V29.2325C76.5373 19.0755 75.6784 15.822 72.243 13.1241C69.5884 10.9816 62.6356 9.99844 59.6687 11.3608C57.7518 11.9539 55.522 10.6233 53.5379 10.9222C52.5872 11.0654 51.6461 11.2791 51.0268 11.5947Z" fill="#FF9D42"/>
<path d="M85.5935 13.0446C84.5004 13.9175 82.9389 15.8219 82.2362 17.1709C80.5185 20.583 80.5966 29.2324 82.3143 32.6445C84.9689 37.8023 91.6835 39.8655 96.9927 37.0882C97.9943 36.5628 99.1671 37.4017 98.9935 38.5193L98.9446 38.8339C98.32 42.5634 97.6954 43.1982 94.4943 43.2776C92.6985 43.357 91.4493 42.8015 90.5123 41.6906C89.4193 40.2622 88.3262 39.9448 85.1251 39.9448C81.0651 39.9448 81.0651 39.9448 81.6116 42.0873C82.7828 46.9278 87.155 49.5464 93.9477 49.6257C99.256 49.6257 104.982 47.1955 106.723 42.1806C106.856 41.796 106.971 41.3949 107.065 40.9764C108.08 36.2947 107.923 13.4414 106.83 12.3304C105.503 10.9815 100.038 11.1402 99.4912 12.5685C99.1008 13.6001 98.8665 13.6001 97.3831 12.5685C94.8066 10.7434 88.092 11.0608 85.5935 13.0446ZM97.5392 19.7895C99.8815 22.8049 99.7254 27.566 97.2269 30.0259C94.9627 32.4064 93.7135 32.4858 91.2931 30.502C89.7316 29.2324 89.4193 28.2008 89.4193 24.868C89.4193 21.5352 89.7316 20.5037 91.2931 19.234C93.7916 17.1709 95.6654 17.3296 97.5392 19.7895Z" fill="#FF9D42"/>
<path d="M117.996 12.7273C113.858 14.7905 112.452 17.8852 112.452 25.1855C112.452 32.8033 114.014 35.9774 118.698 37.8818C125.491 40.6591 133.064 38.834 136.422 33.6762C137.827 31.5337 138.217 29.8673 138.217 25.5029C138.217 18.52 136.656 15.0285 132.674 12.9654C128.926 10.9816 121.743 10.9022 117.996 12.7273ZM129.395 21.1386C130.566 24.6301 129.941 29.9466 128.302 31.6924C127.677 32.3272 126.116 32.8033 124.866 32.8033C122.914 32.8033 122.29 32.3272 121.275 29.8673C119.948 26.5345 120.26 20.8212 121.821 18.8374C122.524 18.0439 123.851 17.7265 125.647 17.8852C128.146 18.1232 128.536 18.4406 129.395 21.1386Z" fill="#FF9D42"/>
<circle cx="12" cy="4" r="4" fill="#FF9D42"/>
</svg>
