<svg width="269" height="102" viewBox="0 0 269 102" fill="none" xmlns="http://www.w3.org/2000/svg">
<path d="M12.7668 27.4625C12.3079 28.5726 11.8491 42.0528 11.6962 57.2775L11.3268 79.6201C11.2752 82.7412 8.97217 85.3663 5.88437 85.8237C1.29611 86.4581 0.531399 87.2511 0.0725727 91.533C-0.539195 98.511 2.67259 100.731 11.3903 99.3039C15.8256 98.6696 20.108 96.6079 23.1668 93.7533C26.2835 90.9254 28.061 86.9127 28.061 82.7043V57.7532V33.709C28.061 29.5712 24.8488 26.1442 20.7197 25.8766C15.8256 25.5594 13.2256 26.0352 12.7668 27.4625Z" fill="#FF9D42"/>
<path d="M47.6374 28.731C42.1315 32.0614 38.9197 37.4535 40.1432 40.7839C41.3668 44.2729 52.2256 43.6385 55.5904 39.8324C59.261 35.709 66.4492 35.709 68.5904 39.8324C71.0375 44.5901 69.661 45.5416 60.1786 46.8103C50.3903 47.9205 40.4491 52.6782 38.002 57.1187C30.3549 72.0262 49.6256 87.2509 65.5316 78.687C68.1316 77.2597 70.1198 76.9425 70.1198 77.8941C70.1198 78.687 73.4846 79.48 77.7669 79.48C81.9903 79.48 85.414 76.0563 85.414 71.8329V58.3874C85.414 35.3918 84.4964 32.3786 76.2375 27.9381C69.661 24.4491 53.7551 24.7663 47.6374 28.731ZM70.1198 58.2289C70.1198 67.5857 55.5904 73.7707 52.5315 65.524C50.9752 61.2696 55.3085 58.3722 66.2576 56.3298C68.1077 55.9847 70.1198 56.3468 70.1198 58.2289Z" fill="#FF9D42"/>
<path d="M98.1388 25.9968C97.4483 26.3574 97.0118 27.0171 96.9058 27.7888C96.4417 31.1669 96.1199 41.6752 96.1199 53.6297V71.0682C96.1199 75.7139 99.886 79.48 104.532 79.48C109.177 79.48 112.943 75.7139 112.943 71.0682V62.035C112.943 46.6518 113.249 44.2729 116.002 41.4183C117.685 39.6738 120.438 38.2465 122.12 38.2465C123.802 38.2465 126.555 39.6738 128.238 41.4183C130.991 44.2729 131.297 46.6518 131.297 62.035V71.0682C131.297 75.7139 135.063 79.48 139.708 79.48C144.354 79.48 148.12 75.7139 148.12 71.0682V61.2421C148.12 40.9425 146.438 34.4403 139.708 29.0482C134.508 24.7663 120.889 22.8014 115.077 25.5242C111.314 26.712 106.935 24.0497 103.035 24.6526C101.179 24.9395 99.3447 25.3668 98.1388 25.9968Z" fill="#FF9D42"/>
<path d="M165.861 28.8898C163.72 30.6343 160.661 34.4405 159.285 37.1365C155.92 43.9559 156.073 61.2423 159.438 68.0617C164.638 78.37 177.791 82.4934 188.191 76.9427C190.146 75.8965 192.456 77.5296 192.123 79.7215L192.014 80.4317C190.791 87.8855 189.567 89.1542 183.297 89.3128C179.779 89.4714 177.332 88.3612 175.497 86.141C173.355 83.2863 171.214 82.652 164.944 82.652C156.991 82.652 156.991 82.652 158.061 86.9339C160.355 96.6079 168.92 101.841 182.226 102C182.688 102 183.172 101.986 183.672 101.96C193.103 101.471 202.967 97.3316 206.668 88.6436C207.187 87.4261 207.612 86.1191 207.92 84.7136C209.909 75.3568 209.603 29.6828 207.462 27.4625C204.862 24.7665 194.156 25.0837 193.085 27.9383C192.32 30 191.861 30 188.956 27.9383C183.908 24.2907 170.755 24.9251 165.861 28.8898ZM189.261 42.37C193.85 48.3964 193.544 57.9119 188.65 62.8282C184.214 67.5859 181.767 67.7445 177.026 63.7797C173.967 61.2423 173.355 59.1806 173.355 52.5198C173.355 45.859 173.967 43.7973 177.026 41.2599C181.92 37.1365 185.591 37.4537 189.261 42.37Z" fill="#FF9D42"/>
<path d="M229.332 28.2555C221.226 32.3788 218.473 38.5638 218.473 53.1542C218.473 68.3788 221.532 74.7225 230.709 78.5286C244.015 84.0793 258.85 80.4317 265.427 70.1233C268.18 65.8414 268.944 62.511 268.944 53.7885C268.944 39.8326 265.885 32.8546 258.085 28.7312C250.744 24.7665 236.673 24.6079 229.332 28.2555ZM251.662 45.066C253.956 52.044 252.732 62.6696 249.521 66.1586C248.297 67.4273 245.238 68.3788 242.791 68.3788C238.968 68.3788 237.744 67.4273 235.756 62.511C233.156 55.8502 233.768 44.4317 236.826 40.4669C238.203 38.881 240.803 38.2467 244.321 38.5638C249.215 39.0396 249.979 39.674 251.662 45.066Z" fill="#FF9D42"/>
<circle cx="21.7002" cy="7.83548" r="7.83548" fill="#FF9D42"/>
</svg>
