<svg width="201" height="35" viewBox="0 0 201 35" fill="none" xmlns="http://www.w3.org/2000/svg">
<path d="M1.28002 33.84C1.04002 33.84 0.836016 33.756 0.668016 33.588C0.500016 33.42 0.416016 33.216 0.416016 32.976V30.888C0.416016 30.648 0.500016 30.444 0.668016 30.276C0.836016 30.108 1.04002 30.024 1.28002 30.024H2.21602C2.96002 30.024 3.51202 29.892 3.87202 29.628C4.23202 29.364 4.47202 28.992 4.59202 28.512C4.71202 28.056 4.77202 27.54 4.77202 26.964V9.14401C4.77202 8.90401 4.85602 8.70001 5.02402 8.53201C5.19202 8.36401 5.39602 8.28001 5.63602 8.28001H8.76802C9.00802 8.28001 9.21202 8.36401 9.38002 8.53201C9.54802 8.70001 9.63202 8.90401 9.63202 9.14401V27.036C9.63202 28.452 9.36802 29.664 8.84002 30.672C8.33602 31.68 7.56802 32.46 6.53602 33.012C5.52802 33.564 4.23202 33.84 2.64802 33.84H1.28002ZM5.49202 5.18401C5.22802 5.18401 5.01202 5.11201 4.84402 4.96801C4.67602 4.80001 4.59202 4.58401 4.59202 4.32001V1.72801C4.59202 1.48801 4.67602 1.28401 4.84402 1.11601C5.01202 0.948013 5.22802 0.864014 5.49202 0.864014H8.87602C9.14002 0.864014 9.35602 0.948013 9.52402 1.11601C9.69202 1.28401 9.77602 1.48801 9.77602 1.72801V4.32001C9.77602 4.58401 9.69202 4.80001 9.52402 4.96801C9.35602 5.11201 9.14002 5.18401 8.87602 5.18401H5.49202Z" fill="#FF9D42"/>
<path d="M19.8667 27.36C18.6187 27.36 17.4907 27.12 16.4827 26.64C15.4747 26.136 14.6707 25.476 14.0707 24.66C13.4947 23.82 13.2067 22.884 13.2067 21.852C13.2067 20.172 13.8787 18.84 15.2227 17.856C16.5907 16.848 18.3907 16.176 20.6227 15.84L24.8066 15.2292C25.2362 15.1665 25.5547 14.7981 25.5547 14.364C25.5547 13.356 25.3027 12.576 24.7987 12.024C24.2947 11.472 23.4307 11.196 22.2067 11.196C21.3427 11.196 20.6347 11.376 20.0827 11.736C19.5547 12.072 19.1587 12.528 18.8947 13.104C18.7027 13.416 18.4267 13.572 18.0667 13.572H15.2227C14.9587 13.572 14.7547 13.5 14.6107 13.356C14.4907 13.212 14.4307 13.02 14.4307 12.78C14.4547 12.396 14.6107 11.928 14.8987 11.376C15.1867 10.824 15.6427 10.296 16.2667 9.79201C16.8907 9.26401 17.6947 8.82001 18.6787 8.46001C19.6627 8.10001 20.8507 7.92001 22.2427 7.92001C23.7547 7.92001 25.0267 8.11201 26.0587 8.49601C27.1147 8.85601 27.9547 9.34801 28.5787 9.97201C29.2027 10.596 29.6587 11.328 29.9467 12.168C30.2347 13.008 30.3787 13.896 30.3787 14.832V26.136C30.3787 26.376 30.2947 26.58 30.1267 26.748C29.9587 26.916 29.7547 27 29.5147 27H26.5987C26.3347 27 26.1187 26.916 25.9507 26.748C25.8067 26.58 25.7347 26.376 25.7347 26.136C25.7347 25.709 25.1156 25.4884 24.7928 25.768C24.6916 25.8557 24.5855 25.9424 24.4747 26.028C23.9467 26.412 23.2987 26.736 22.5307 27C21.7867 27.24 20.8987 27.36 19.8667 27.36ZM21.0907 23.94C21.9307 23.94 22.6867 23.76 23.3587 23.4C24.0547 23.04 24.5947 22.488 24.9787 21.744C25.3867 20.976 25.5907 20.016 25.5907 18.864C25.5907 18.4673 25.2359 18.1648 24.8442 18.2275L21.9907 18.684C20.5747 18.9 19.5187 19.248 18.8227 19.728C18.1267 20.208 17.7787 20.796 17.7787 21.492C17.7787 22.02 17.9347 22.476 18.2467 22.86C18.5827 23.22 19.0027 23.496 19.5067 23.688C20.0107 23.856 20.5387 23.94 21.0907 23.94Z" fill="#FF9D42"/>
<path d="M35.8611 27C35.6211 27 35.4171 26.916 35.2491 26.748C35.0811 26.58 34.9971 26.376 34.9971 26.136V9.14401C34.9971 8.90401 35.0811 8.70001 35.2491 8.53201C35.4171 8.36401 35.6211 8.28001 35.8611 8.28001H38.8131C39.0531 8.28001 39.2571 8.36401 39.4251 8.53201C39.5931 8.70001 39.6771 8.90401 39.6771 9.14401C39.6771 9.63739 40.3379 9.89113 40.7217 9.58105C41.1222 9.25739 41.5661 8.96772 42.0531 8.71201C43.0371 8.18401 44.2491 7.92001 45.6891 7.92001C47.1531 7.92001 48.4251 8.25601 49.5051 8.92801C50.5851 9.57601 51.4131 10.5 51.9891 11.7C52.5891 12.9 52.8891 14.34 52.8891 16.02V26.136C52.8891 26.376 52.8051 26.58 52.6371 26.748C52.4691 26.916 52.2651 27 52.0251 27H48.8571C48.6171 27 48.4131 26.916 48.2451 26.748C48.0771 26.58 47.9931 26.376 47.9931 26.136V16.236C47.9931 14.844 47.6451 13.752 46.9491 12.96C46.2771 12.168 45.2931 11.772 43.9971 11.772C42.7491 11.772 41.7531 12.168 41.0091 12.96C40.2651 13.752 39.8931 14.844 39.8931 16.236V26.136C39.8931 26.376 39.8091 26.58 39.6411 26.748C39.4731 26.916 39.2691 27 39.0291 27H35.8611Z" fill="#FF9D42"/>
<path d="M65.922 34.92C64.17 34.92 62.7299 34.692 61.602 34.236C60.474 33.78 59.586 33.228 58.938 32.58C58.29 31.932 57.822 31.284 57.534 30.636C57.27 30.012 57.1259 29.52 57.102 29.16C57.078 28.92 57.15 28.704 57.318 28.512C57.51 28.344 57.726 28.26 57.966 28.26H61.098C61.338 28.26 61.53 28.308 61.674 28.404C61.818 28.524 61.938 28.728 62.034 29.016C62.178 29.328 62.37 29.664 62.61 30.024C62.85 30.384 63.21 30.684 63.69 30.924C64.194 31.188 64.878 31.32 65.742 31.32C66.654 31.32 67.422 31.188 68.046 30.924C68.67 30.66 69.138 30.216 69.45 29.592C69.7859 28.968 69.954 28.104 69.954 27C69.954 26.174 68.7858 25.6856 68.0574 26.0751C67.9482 26.1335 67.8364 26.1898 67.722 26.244C66.834 26.676 65.73 26.892 64.41 26.892C63.114 26.892 61.998 26.688 61.062 26.28C60.126 25.848 59.346 25.26 58.722 24.516C58.098 23.748 57.618 22.848 57.282 21.816C56.97 20.784 56.79 19.644 56.742 18.396C56.718 17.748 56.718 17.1 56.742 16.452C56.79 15.252 56.97 14.136 57.282 13.104C57.594 12.072 58.062 11.172 58.686 10.404C59.334 9.61201 60.126 9.00001 61.062 8.56801C61.998 8.13601 63.114 7.92001 64.41 7.92001C65.778 7.92001 66.93 8.18401 67.866 8.71201C68.3443 8.96959 68.7788 9.26165 69.1694 9.58818C69.5312 9.89062 70.17 9.65157 70.17 9.18001C70.17 8.91601 70.254 8.70001 70.422 8.53201C70.59 8.36401 70.794 8.28001 71.034 8.28001H73.95C74.1899 8.28001 74.394 8.36401 74.562 8.53201C74.7299 8.70001 74.814 8.91601 74.814 9.18001L74.85 26.532C74.85 28.26 74.526 29.748 73.878 30.996C73.2299 32.244 72.246 33.204 70.926 33.876C69.63 34.572 67.962 34.92 65.922 34.92ZM65.742 23.076C66.726 23.076 67.518 22.86 68.118 22.428C68.7179 21.996 69.1619 21.432 69.45 20.736C69.738 20.04 69.906 19.332 69.954 18.612C69.978 18.3 69.99 17.904 69.99 17.424C69.99 16.944 69.978 16.56 69.954 16.272C69.906 15.528 69.738 14.82 69.45 14.148C69.1619 13.452 68.7179 12.888 68.118 12.456C67.518 12 66.726 11.772 65.742 11.772C64.7579 11.772 63.966 12 63.366 12.456C62.766 12.888 62.334 13.464 62.07 14.184C61.83 14.904 61.686 15.696 61.638 16.56C61.59 17.136 61.59 17.724 61.638 18.324C61.686 19.164 61.83 19.956 62.07 20.7C62.334 21.42 62.766 21.996 63.366 22.428C63.966 22.86 64.7579 23.076 65.742 23.076Z" fill="#FF9D42"/>
<path d="M87.9255 27.36C86.0055 27.36 84.3855 27.024 83.0655 26.352C81.7695 25.68 80.7735 24.732 80.0775 23.508C79.4055 22.284 79.0215 20.856 78.9255 19.224C78.9015 18.792 78.8895 18.264 78.8895 17.64C78.8895 17.016 78.9015 16.488 78.9255 16.056C79.0215 14.4 79.4175 12.972 80.1135 11.772C80.8335 10.548 81.8416 9.60001 83.1376 8.92801C84.4576 8.25601 86.0535 7.92001 87.9255 7.92001C89.7975 7.92001 91.3816 8.25601 92.6776 8.92801C93.9976 9.60001 95.0055 10.548 95.7015 11.772C96.4215 12.972 96.8295 14.4 96.9255 16.056C96.9495 16.488 96.9615 17.016 96.9615 17.64C96.9615 18.264 96.9495 18.792 96.9255 19.224C96.8295 20.856 96.4335 22.284 95.7375 23.508C95.0656 24.732 94.0695 25.68 92.7495 26.352C91.4536 27.024 89.8455 27.36 87.9255 27.36ZM87.9255 23.796C89.1975 23.796 90.1815 23.4 90.8775 22.608C91.5735 21.792 91.9576 20.604 92.0295 19.044C92.0536 18.684 92.0655 18.216 92.0655 17.64C92.0655 17.064 92.0536 16.596 92.0295 16.236C91.9576 14.7 91.5735 13.524 90.8775 12.708C90.1815 11.892 89.1975 11.484 87.9255 11.484C86.6535 11.484 85.6695 11.892 84.9735 12.708C84.2775 13.524 83.8935 14.7 83.8215 16.236C83.7975 16.596 83.7855 17.064 83.7855 17.64C83.7855 18.216 83.7975 18.684 83.8215 19.044C83.8935 20.604 84.2775 21.792 84.9735 22.608C85.6695 23.4 86.6535 23.796 87.9255 23.796Z" fill="#FF9D42"/>
<path d="M117.546 29.34C117.21 29.34 116.934 29.232 116.718 29.016C116.526 28.824 116.37 28.656 116.25 28.512C115.463 27.4481 114.062 27.0762 112.75 27.2522C112.215 27.3241 111.654 27.36 111.066 27.36C108.93 27.36 107.082 27.012 105.522 26.316C103.986 25.596 102.786 24.504 101.922 23.04C101.082 21.552 100.614 19.704 100.518 17.496C100.494 16.464 100.482 15.444 100.482 14.436C100.482 13.428 100.494 12.396 100.518 11.34C100.614 9.15601 101.094 7.33201 101.958 5.86801C102.846 4.40401 104.07 3.30001 105.63 2.55601C107.19 1.81201 109.002 1.44001 111.066 1.44001C113.13 1.44001 114.942 1.81201 116.502 2.55601C118.062 3.30001 119.286 4.40401 120.174 5.86801C121.062 7.33201 121.53 9.15601 121.578 11.34C121.626 12.396 121.65 13.428 121.65 14.436C121.65 15.444 121.626 16.464 121.578 17.496C121.524 18.9069 121.321 20.1656 120.967 21.272C120.269 23.456 119.95 26.0227 121.273 27.8947L121.465 28.166C121.493 28.2046 121.52 28.2343 121.545 28.274C121.567 28.3071 121.585 28.3506 121.594 28.3891C121.608 28.4474 121.614 28.5124 121.614 28.584C121.638 28.8 121.566 28.98 121.398 29.124C121.254 29.268 121.086 29.34 120.894 29.34H117.546ZM111.066 23.22C112.602 23.22 113.862 22.764 114.846 21.852C115.83 20.916 116.358 19.404 116.43 17.316C116.478 16.26 116.502 15.288 116.502 14.4C116.502 13.488 116.478 12.516 116.43 11.484C116.406 10.092 116.154 8.96401 115.674 8.10001C115.194 7.21201 114.558 6.57601 113.766 6.19201C112.998 5.78401 112.098 5.58001 111.066 5.58001C110.058 5.58001 109.158 5.78401 108.366 6.19201C107.574 6.57601 106.938 7.21201 106.458 8.10001C106.002 8.96401 105.738 10.092 105.666 11.484C105.642 12.516 105.63 13.488 105.63 14.4C105.63 15.288 105.642 16.26 105.666 17.316C105.762 19.404 106.302 20.916 107.286 21.852C108.27 22.764 109.53 23.22 111.066 23.22Z" fill="#FF9D42"/>
<path d="M132.929 27.36C131.465 27.36 130.193 27.036 129.113 26.388C128.057 25.716 127.241 24.78 126.665 23.58C126.089 22.356 125.801 20.916 125.801 19.26V9.14401C125.801 8.90401 125.885 8.70001 126.053 8.53201C126.221 8.36401 126.425 8.28001 126.665 8.28001H129.833C130.097 8.28001 130.301 8.36401 130.445 8.53201C130.613 8.70001 130.697 8.90401 130.697 9.14401V19.044C130.697 22.02 132.005 23.508 134.621 23.508C135.869 23.508 136.853 23.112 137.573 22.32C138.317 21.528 138.689 20.436 138.689 19.044V9.14401C138.689 8.90401 138.773 8.70001 138.941 8.53201C139.109 8.36401 139.313 8.28001 139.553 8.28001H142.721C142.961 8.28001 143.165 8.36401 143.333 8.53201C143.501 8.70001 143.585 8.90401 143.585 9.14401V26.136C143.585 26.376 143.501 26.58 143.333 26.748C143.165 26.916 142.961 27 142.721 27H139.805C139.541 27 139.325 26.916 139.157 26.748C139.013 26.58 138.941 26.376 138.941 26.136C138.941 25.6559 138.291 25.4158 137.924 25.7255C137.503 26.0808 137.038 26.3857 136.529 26.64C135.569 27.12 134.369 27.36 132.929 27.36Z" fill="#FF9D42"/>
<path d="M156.405 27.36C153.741 27.36 151.629 26.592 150.069 25.056C148.509 23.52 147.669 21.336 147.549 18.504C147.525 18.264 147.513 17.964 147.513 17.604C147.513 17.22 147.525 16.92 147.549 16.704C147.645 14.904 148.053 13.344 148.773 12.024C149.517 10.704 150.537 9.69601 151.833 9.00001C153.129 8.28001 154.653 7.92001 156.405 7.92001C158.349 7.92001 159.981 8.32801 161.301 9.14401C162.621 9.93601 163.617 11.052 164.289 12.492C164.961 13.908 165.297 15.552 165.297 17.424V18.18C165.297 18.42 165.213 18.624 165.045 18.792C164.877 18.96 164.661 19.044 164.397 19.044H152.553C152.493 19.044 152.445 19.0924 152.445 19.152C152.445 19.224 152.445 19.284 152.445 19.332C152.469 20.172 152.625 20.952 152.913 21.672C153.225 22.368 153.669 22.932 154.245 23.364C154.845 23.796 155.553 24.012 156.369 24.012C157.041 24.012 157.605 23.916 158.061 23.724C158.517 23.508 158.889 23.268 159.177 23.004C159.465 22.74 159.669 22.524 159.789 22.356C160.005 22.068 160.173 21.9 160.293 21.852C160.437 21.78 160.641 21.744 160.905 21.744H164.001C164.241 21.744 164.433 21.816 164.577 21.96C164.745 22.104 164.817 22.284 164.793 22.5C164.769 22.884 164.565 23.352 164.181 23.904C163.821 24.456 163.293 24.996 162.597 25.524C161.901 26.052 161.025 26.496 159.969 26.856C158.937 27.192 157.749 27.36 156.405 27.36ZM152.445 15.912C152.445 15.9717 152.493 16.02 152.553 16.02H160.293C160.353 16.02 160.401 15.9717 160.401 15.912C160.401 14.976 160.245 14.16 159.933 13.464C159.621 12.768 159.165 12.216 158.565 11.808C157.965 11.4 157.245 11.196 156.405 11.196C155.565 11.196 154.845 11.4 154.245 11.808C153.645 12.216 153.189 12.768 152.877 13.464C152.589 14.16 152.445 14.976 152.445 15.912Z" fill="#FF9D42"/>
<path d="M176.21 27.36C174.77 27.36 173.534 27.192 172.502 26.856C171.494 26.52 170.666 26.1 170.018 25.596C169.37 25.092 168.89 24.588 168.578 24.084C168.266 23.58 168.098 23.16 168.074 22.824C168.05 22.56 168.122 22.356 168.29 22.212C168.482 22.044 168.686 21.96 168.902 21.96H171.746C171.842 21.96 171.926 21.972 171.998 21.996C172.07 22.02 172.166 22.092 172.286 22.212C172.598 22.476 172.922 22.752 173.258 23.04C173.618 23.328 174.038 23.58 174.518 23.796C174.998 23.988 175.598 24.084 176.318 24.084C177.254 24.084 178.034 23.904 178.658 23.544C179.306 23.16 179.63 22.62 179.63 21.924C179.63 21.42 179.486 21.012 179.198 20.7C178.934 20.388 178.43 20.112 177.686 19.872C176.942 19.608 175.886 19.332 174.518 19.044C173.174 18.732 172.058 18.336 171.17 17.856C170.282 17.376 169.622 16.776 169.19 16.056C168.758 15.336 168.542 14.496 168.542 13.536C168.542 12.6 168.818 11.712 169.37 10.872C169.946 10.008 170.786 9.30001 171.89 8.74801C173.018 8.19601 174.41 7.92001 176.066 7.92001C177.362 7.92001 178.49 8.08801 179.45 8.42401C180.41 8.73601 181.202 9.13201 181.826 9.61201C182.474 10.092 182.966 10.584 183.302 11.088C183.638 11.568 183.818 11.988 183.842 12.348C183.866 12.612 183.794 12.828 183.626 12.996C183.458 13.14 183.266 13.212 183.05 13.212H180.386C180.266 13.212 180.158 13.188 180.062 13.14C179.966 13.092 179.87 13.032 179.774 12.96C179.51 12.72 179.222 12.468 178.91 12.204C178.598 11.94 178.214 11.712 177.758 11.52C177.326 11.304 176.75 11.196 176.03 11.196C175.118 11.196 174.422 11.4 173.942 11.808C173.462 12.192 173.222 12.684 173.222 13.284C173.222 13.692 173.33 14.052 173.546 14.364C173.786 14.652 174.254 14.928 174.95 15.192C175.646 15.456 176.702 15.732 178.118 16.02C179.726 16.308 180.998 16.74 181.934 17.316C182.894 17.868 183.566 18.516 183.95 19.26C184.358 19.98 184.562 20.784 184.562 21.672C184.562 22.752 184.238 23.724 183.59 24.588C182.966 25.452 182.03 26.136 180.782 26.64C179.558 27.12 178.034 27.36 176.21 27.36Z" fill="#FF9D42"/>
<path d="M196.668 27C195.228 27 194.016 26.748 193.032 26.244C192.048 25.74 191.316 24.996 190.836 24.012C190.356 23.004 190.116 21.756 190.116 20.268V14.94C190.116 13.3693 188.843 12.096 187.272 12.096C187.032 12.096 186.828 12.012 186.66 11.844C186.492 11.676 186.408 11.472 186.408 11.232V9.14401C186.408 8.90401 186.492 8.70001 186.66 8.53201C186.828 8.36401 187.032 8.28001 187.272 8.28001C188.843 8.28001 190.116 7.00671 190.116 5.43602V2.30401C190.116 2.06401 190.188 1.86001 190.332 1.69201C190.5 1.52401 190.716 1.44001 190.98 1.44001H193.896C194.136 1.44001 194.34 1.52401 194.508 1.69201C194.676 1.86001 194.76 2.06401 194.76 2.30401V3.78001C194.76 6.26529 196.775 8.28001 199.26 8.28001C199.5 8.28001 199.704 8.36401 199.872 8.53201C200.04 8.70001 200.124 8.90401 200.124 9.14401V11.232C200.124 11.472 200.04 11.676 199.872 11.844C199.704 12.012 199.5 12.096 199.26 12.096C196.775 12.096 194.76 14.1107 194.76 16.596V19.908C194.76 20.892 194.928 21.66 195.264 22.212C195.624 22.764 196.236 23.04 197.1 23.04H199.584C199.824 23.04 200.028 23.124 200.196 23.292C200.364 23.46 200.448 23.664 200.448 23.904V26.136C200.448 26.376 200.364 26.58 200.196 26.748C200.028 26.916 199.824 27 199.584 27H196.668Z" fill="#FF9D42"/>
</svg>
