<svg width="26" height="26" viewBox="0 0 26 26" fill="none" xmlns="http://www.w3.org/2000/svg">
<path d="M5.69654 25.0557H0.50196V8.32743H5.69654V25.0557ZM3.09612 6.04557C1.43528 6.04557 0.0876465 4.6693 0.0876465 3.00847C0.0876465 1.34764 1.43439 0 3.09612 0C4.75784 0 6.10459 1.34674 6.10459 3.00847C6.10459 4.6693 4.75695 6.04557 3.09612 6.04557ZM25.1379 25.0557H19.955V16.9126C19.955 14.9717 19.9156 12.4831 17.2544 12.4831C14.5537 12.4831 14.1394 14.5913 14.1394 16.773V25.0557H8.95019V8.32743H13.9318V10.6093H14.0043C14.6978 9.29476 16.3917 7.90775 18.9188 7.90775C24.176 7.90775 25.1424 11.3699 25.1424 15.8665V25.0557H25.1379Z" fill="#FFF5EB"/>
</svg>
