<svg width="53" height="53" viewBox="0 0 53 53" fill="none" xmlns="http://www.w3.org/2000/svg">
<circle cx="26.5" cy="26.5" r="25.5" stroke="black" stroke-width="2"/>
<path d="M14.5918 26.5022C14.5918 26.079 14.7366 25.673 14.9942 25.3737C15.2519 25.0744 15.6014 24.9062 15.9658 24.9062H18.7139C19.0784 24.9062 19.4278 25.0744 19.6855 25.3737C19.9432 25.673 20.088 26.079 20.088 26.5022V34.4821C20.088 34.9054 19.9432 35.3114 19.6855 35.6107C19.4278 35.91 19.0784 36.0781 18.7139 36.0781H15.9658C15.6014 36.0781 15.2519 35.91 14.9942 35.6107C14.7366 35.3114 14.5918 34.9054 14.5918 34.4821V26.5022ZM22.8361 20.1183C22.8361 19.695 22.9808 19.2891 23.2385 18.9898C23.4962 18.6905 23.8457 18.5223 24.2101 18.5223H26.9582C27.3226 18.5223 27.6721 18.6905 27.9298 18.9898C28.1875 19.2891 28.3322 19.695 28.3322 20.1183V34.4821C28.3322 34.9054 28.1875 35.3114 27.9298 35.6107C27.6721 35.91 27.3226 36.0781 26.9582 36.0781H24.2101C23.8457 36.0781 23.4962 35.91 23.2385 35.6107C22.9808 35.3114 22.8361 34.9054 22.8361 34.4821V20.1183ZM31.0803 15.3304C31.0803 14.9071 31.2251 14.5011 31.4828 14.2018C31.7405 13.9025 32.09 13.7344 32.4544 13.7344H35.2025C35.5669 13.7344 35.9164 13.9025 36.1741 14.2018C36.4318 14.5011 36.5765 14.9071 36.5765 15.3304V34.4821C36.5765 34.9054 36.4318 35.3114 36.1741 35.6107C35.9164 35.91 35.5669 36.0781 35.2025 36.0781H32.4544C32.09 36.0781 31.7405 35.91 31.4828 35.6107C31.2251 35.3114 31.0803 34.9054 31.0803 34.4821V15.3304Z" fill="black"/>
</svg>
