<svg width="32" height="33" viewBox="0 0 32 33" fill="none" xmlns="http://www.w3.org/2000/svg">
<path d="M22.6955 26.962H29.2988V24.3207C29.2987 23.4973 29.0421 22.6944 28.5647 22.0235C28.0872 21.3527 27.4127 20.8473 26.6347 20.5776C25.8568 20.3079 25.0141 20.2872 24.2239 20.5185C23.4336 20.7498 22.7351 21.2216 22.2254 21.8682M22.6955 26.962H9.489M22.6955 26.962V24.3207C22.6955 23.4543 22.5291 22.6263 22.2254 21.8682M22.2254 21.8682C21.7349 20.6426 20.8885 19.592 19.7954 18.852C18.7022 18.112 17.4124 17.7165 16.0923 17.7165C14.7722 17.7165 13.4823 18.112 12.3892 18.852C11.296 19.592 10.4496 20.6426 9.95916 21.8682M9.489 26.962H2.88574V24.3207C2.8858 23.4973 3.14239 22.6944 3.61984 22.0235C4.09729 21.3527 4.77188 20.8473 5.54983 20.5776C6.32778 20.3079 7.17044 20.2872 7.96066 20.5185C8.75089 20.7498 9.44942 21.2216 9.95916 21.8682M9.489 26.962V24.3207C9.489 23.4543 9.65541 22.6263 9.95916 21.8682M20.0542 9.79348C20.0542 10.8443 19.6368 11.852 18.8938 12.595C18.1508 13.338 17.143 13.7554 16.0923 13.7554C15.0415 13.7554 14.0337 13.338 13.2907 12.595C12.5477 11.852 12.1303 10.8443 12.1303 9.79348C12.1303 8.74271 12.5477 7.73497 13.2907 6.99196C14.0337 6.24895 15.0415 5.83153 16.0923 5.83153C17.143 5.83153 18.1508 6.24895 18.8938 6.99196C19.6368 7.73497 20.0542 8.74271 20.0542 9.79348ZM27.9781 13.7554C27.9781 14.456 27.6999 15.1278 27.2045 15.6231C26.7092 16.1185 26.0373 16.3967 25.3368 16.3967C24.6363 16.3967 23.9645 16.1185 23.4691 15.6231C22.9738 15.1278 22.6955 14.456 22.6955 13.7554C22.6955 13.0549 22.9738 12.3831 23.4691 11.8878C23.9645 11.3924 24.6363 11.1141 25.3368 11.1141C26.0373 11.1141 26.7092 11.3924 27.2045 11.8878C27.6999 12.3831 27.9781 13.0549 27.9781 13.7554ZM9.489 13.7554C9.489 14.456 9.21072 15.1278 8.71538 15.6231C8.22004 16.1185 7.54822 16.3967 6.8477 16.3967C6.14718 16.3967 5.47536 16.1185 4.98001 15.6231C4.48467 15.1278 4.20639 14.456 4.20639 13.7554C4.20639 13.0549 4.48467 12.3831 4.98001 11.8878C5.47536 11.3924 6.14718 11.1141 6.8477 11.1141C7.54822 11.1141 8.22004 11.3924 8.71538 11.8878C9.21072 12.3831 9.489 13.0549 9.489 13.7554Z" stroke="black" stroke-width="2" stroke-linecap="round" stroke-linejoin="round"/>
</svg>
