<svg width="40" height="40" viewBox="0 0 40 40" fill="none" xmlns="http://www.w3.org/2000/svg">
<path d="M18.3336 5.09167C15.526 5.40542 12.8642 6.50554 10.6543 8.26539C8.44443 10.0253 6.77639 12.3733 5.84214 15.0394C4.90789 17.7054 4.74542 20.5811 5.37342 23.3354C6.00141 26.0897 7.39436 28.6107 9.39194 30.6083C11.3895 32.6059 13.9105 33.9988 16.6648 34.6268C19.4192 35.2548 22.2948 35.0923 24.9609 34.1581C27.6269 33.2239 29.975 31.5558 31.7348 29.3459C33.4947 27.1361 34.5948 24.4742 34.9086 21.6667H18.3336V5.09167Z" stroke="black" stroke-width="3" stroke-linecap="round" stroke-linejoin="round"/>
<path d="M34.1467 15H25V5.85333C27.109 6.60155 29.0244 7.81089 30.6068 9.39323C32.1891 10.9756 33.3985 12.891 34.1467 15Z" stroke="black" stroke-width="3" stroke-linecap="round" stroke-linejoin="round"/>
</svg>
