<svg width="53" height="53" viewBox="0 0 53 53" fill="none" xmlns="http://www.w3.org/2000/svg">
<path d="M52 26.5C52 40.5833 40.5833 52 26.5 52C12.4167 52 1 40.5833 1 26.5C1 12.4167 12.4167 1 26.5 1C40.5833 1 52 12.4167 52 26.5Z" stroke="black" stroke-width="2"/>
<path d="M15.2334 26.5576C15.2334 26.2825 15.2907 26.0101 15.4021 25.756C15.5134 25.5019 15.6766 25.2709 15.8824 25.0764C16.0881 24.8819 16.3324 24.7276 16.6012 24.6223C16.87 24.5171 17.1581 24.4629 17.4491 24.4629C17.7401 24.4629 18.0282 24.5171 18.297 24.6223C18.5659 24.7276 18.8101 24.8819 19.0159 25.0764C19.2216 25.2709 19.3848 25.5019 19.4962 25.756C19.6075 26.0101 19.6648 26.2825 19.6648 26.5576V34.9365C19.6648 35.4921 19.4314 36.0249 19.0159 36.4177C18.6003 36.8106 18.0368 37.0312 17.4491 37.0312C16.8615 37.0312 16.2979 36.8106 15.8824 36.4177C15.4668 36.0249 15.2334 35.4921 15.2334 34.9365V26.5576ZM21.142 26.3244V33.9073C21.1417 34.4263 21.2944 34.9352 21.583 35.3767C21.8716 35.8182 22.2846 36.175 22.7757 36.407L22.8495 36.4419C23.6692 36.8292 24.5729 37.031 25.4892 37.0312H33.4894C34.1726 37.0315 34.8348 36.8079 35.3632 36.3984C35.8917 35.989 36.2536 35.4191 36.3876 34.7857L38.1601 26.4068C38.2458 26.0016 38.2353 25.5836 38.1294 25.1827C38.0235 24.7818 37.8249 24.4082 37.5478 24.0886C37.2707 23.7691 36.9221 23.5117 36.5271 23.3349C36.1321 23.1582 35.7005 23.0664 35.2634 23.0664H30.0048V17.4805C30.0048 16.7397 29.6936 16.0293 29.1395 15.5055C28.5855 14.9818 27.8341 14.6875 27.0505 14.6875C26.6588 14.6875 26.2831 14.8346 26.006 15.0965C25.729 15.3584 25.5734 15.7136 25.5734 16.084V17.0154C25.5734 18.2241 25.1587 19.4001 24.3917 20.367L22.3237 22.9728C21.5566 23.9397 21.142 25.1158 21.142 26.3244Z" fill="black"/>
</svg>
