<svg width="31" height="26" viewBox="0 0 31 26" fill="none" xmlns="http://www.w3.org/2000/svg">
<path d="M30.9413 2.98519C29.8075 3.48224 28.5938 3.8242 27.3146 3.97929C28.6198 3.19614 29.6178 1.95737 30.0936 0.481637C28.8693 1.19446 27.5149 1.71078 26.0749 2.00265C24.9266 0.773509 23.2852 0 21.4637 0C17.9718 0 15.1417 2.82914 15.1417 6.31619C15.1417 6.81806 15.2024 7.29969 15.3074 7.75629C10.0546 7.51065 5.39817 4.98687 2.2839 1.17423C1.73676 2.10283 1.42562 3.1817 1.42562 4.35593C1.42562 6.55316 2.54398 8.4797 4.23453 9.61252C3.20094 9.58265 2.22803 9.29656 1.37553 8.82552V8.90162C1.37553 11.9658 3.55253 14.5204 6.44236 15.1022C5.91544 15.2419 5.35289 15.3228 4.78167 15.3228C4.37613 15.3228 3.9889 15.2833 3.60262 15.212C4.41563 17.7204 6.7429 19.5468 9.51713 19.6017C7.36036 21.2922 4.62658 22.2998 1.68089 22.2998C1.17902 22.2998 0.678122 22.2757 0.175293 22.215C2.98516 24.0067 6.30172 25.0548 9.88414 25.0548C21.508 25.0548 27.8598 15.4268 27.8598 7.08874C27.8598 6.82287 27.8598 6.55219 27.8396 6.28055C29.0793 5.39723 30.1524 4.2779 31.0001 3.00927L30.9413 2.98519Z" fill="#FFF5EB"/>
</svg>
