<svg width="28" height="17" viewBox="0 0 28 17" fill="none" xmlns="http://www.w3.org/2000/svg">
<path fill-rule="evenodd" clip-rule="evenodd" d="M27.1812 16.1368C26.6567 16.6669 25.9455 16.9646 25.204 16.9646C24.4624 16.9646 23.7512 16.6669 23.2268 16.1368L14.0175 6.82533L4.8082 16.1368C4.55022 16.4068 4.24163 16.6222 3.90043 16.7704C3.55923 16.9186 3.19226 16.9966 2.82092 16.9999C2.44959 17.0032 2.08134 16.9316 1.73764 16.7894C1.39395 16.6473 1.0817 16.4373 0.819115 16.1718C0.556532 15.9063 0.348875 15.5906 0.208258 15.2431C0.0676401 14.8956 -0.00312064 14.5232 0.000106562 14.1478C0.00333376 13.7723 0.0804822 13.4013 0.227049 13.0563C0.373617 12.7113 0.586671 12.3993 0.853778 12.1385L12.0403 0.827898C12.5647 0.297796 13.2759 1.28722e-06 14.0175 1.22239e-06C14.759 1.15756e-06 15.4702 0.297795 15.9947 0.827897L27.1812 12.1385C27.7055 12.6687 28 13.3878 28 14.1376C28 14.8874 27.7055 15.6065 27.1812 16.1368Z" fill="black"/>
</svg>
