<svg width="33" height="33" viewBox="0 0 33 33" fill="none" xmlns="http://www.w3.org/2000/svg">
<path d="M22.0543 10.2228C22.0543 11.6239 21.4977 12.9675 20.507 13.9582C19.5164 14.9489 18.1727 15.5054 16.7717 15.5054C15.3706 15.5054 14.027 14.9489 13.0363 13.9582C12.0456 12.9675 11.4891 11.6239 11.4891 10.2228C11.4891 8.82179 12.0456 7.47814 13.0363 6.48746C14.027 5.49677 15.3706 4.94022 16.7717 4.94022C18.1727 4.94022 19.5164 5.49677 20.507 6.48746C21.4977 7.47814 22.0543 8.82179 22.0543 10.2228ZM16.7717 19.4674C14.3199 19.4674 11.9685 20.4414 10.2348 22.1751C8.50108 23.9088 7.5271 26.2601 7.5271 28.712H26.0162C26.0162 26.2601 25.0423 23.9088 23.3086 22.1751C21.5749 20.4414 19.2235 19.4674 16.7717 19.4674Z" stroke="black" stroke-width="2" stroke-linecap="round" stroke-linejoin="round"/>
</svg>
