<svg width="53" height="53" viewBox="0 0 53 53" fill="none" xmlns="http://www.w3.org/2000/svg">
<circle cx="26.5" cy="26.5" r="25.5" stroke="black" stroke-width="2"/>
<path d="M14.5923 26.5022C14.5923 26.079 14.7371 25.673 14.9947 25.3737C15.2524 25.0744 15.6019 24.9062 15.9663 24.9062H18.7144C19.0788 24.9062 19.4283 25.0744 19.686 25.3737C19.9437 25.673 20.0885 26.079 20.0885 26.5022V34.4821C20.0885 34.9054 19.9437 35.3114 19.686 35.6107C19.4283 35.91 19.0788 36.0781 18.7144 36.0781H15.9663C15.6019 36.0781 15.2524 35.91 14.9947 35.6107C14.7371 35.3114 14.5923 34.9054 14.5923 34.4821V26.5022ZM22.8366 20.1183C22.8366 19.695 22.9813 19.2891 23.239 18.9898C23.4967 18.6905 23.8462 18.5223 24.2106 18.5223H26.9587C27.3231 18.5223 27.6726 18.6905 27.9303 18.9898C28.188 19.2891 28.3327 19.695 28.3327 20.1183V34.4821C28.3327 34.9054 28.188 35.3114 27.9303 35.6107C27.6726 35.91 27.3231 36.0781 26.9587 36.0781H24.2106C23.8462 36.0781 23.4967 35.91 23.239 35.6107C22.9813 35.3114 22.8366 34.9054 22.8366 34.4821V20.1183ZM31.0808 15.3304C31.0808 14.9071 31.2256 14.5011 31.4833 14.2018C31.741 13.9025 32.0905 13.7344 32.4549 13.7344H35.203C35.5674 13.7344 35.9169 13.9025 36.1746 14.2018C36.4322 14.5011 36.577 14.9071 36.577 15.3304V34.4821C36.577 34.9054 36.4322 35.3114 36.1746 35.6107C35.9169 35.91 35.5674 36.0781 35.203 36.0781H32.4549C32.0905 36.0781 31.741 35.91 31.4833 35.6107C31.2256 35.3114 31.0808 34.9054 31.0808 34.4821V15.3304Z" fill="black"/>
</svg>
